<?xml version="1.0" encoding="utf-8"?>
<!-- Generator: Adobe Illustrator 16.0.0, SVG Export Plug-In . SVG Version: 6.00 Build 0)  -->
<!DOCTYPE svg PUBLIC "-//W3C//DTD SVG 1.1//EN" "http://www.w3.org/Graphics/SVG/1.1/DTD/svg11.dtd">
<svg version="1.1" id="Layer_1" x="0px" y="0px" width="150px" height="150px" viewBox="0 0 150 150" enableBackground="new 0 0 150 150" >
<path d="M26.688,83.219l39.6,0.049c1.221,0,1.562,0.488,1.562,1.562l0.049,39.6c0,11.475,2.393,20.85,12.451,20.85
	c7.715,0,12.207-6.934,15.918-15.137l46.045-101.221c1.855-4.004,2.979-7.666,2.979-10.986c0-6.885-5.42-12.061-12.109-12.061
	c-3.271,0-6.982,1.172-10.986,2.979L20.975,54.85c-7.91,3.564-15.137,8.203-15.137,15.967C5.838,80.729,15.115,83.219,26.688,83.219
	z"/>
</svg>
