<?xml version="1.0" encoding="utf-8"?>
<!-- Generator: Adobe Illustrator 16.0.0, SVG Export Plug-In . SVG Version: 6.00 Build 0)  -->
<!DOCTYPE svg PUBLIC "-//W3C//DTD SVG 1.1//EN" "http://www.w3.org/Graphics/SVG/1.1/DTD/svg11.dtd">
<svg version="1.1" id="Layer_1" xmlns="http://www.w3.org/2000/svg"  x="0px" y="0px"
	 width="2px" height="2px" viewBox="0 0 2 2" enableBackground="new 0 0 2 2" >
<path id="circle" d="M1.001,0.048c-0.529,0-0.963,0.436-0.963,0.965c0,0.528,0.436,0.963,0.963,0.963
	c0.529,0,0.965-0.436,0.965-0.963C1.967,0.484,1.529,0.048,1.001,0.048z M1.001,1.871c-0.474,0-0.857-0.384-0.857-0.858
	c0-0.475,0.382-0.858,0.857-0.858c0.474,0,0.858,0.383,0.859,0.858C1.86,1.487,1.477,1.871,1.001,1.871z"/>
<path id="bg" fill="#00F600" d="M1.001,0.155c-0.475,0-0.857,0.383-0.857,0.858c0,0.474,0.383,0.858,0.857,0.858
	c0.475,0,0.859-0.384,0.859-0.858C1.859,0.538,1.476,0.155,1.001,0.155z M1.001,0.407c0.145,0,0.259,0.125,0.259,0.277
	c0,0.162-0.115,0.285-0.259,0.283C0.858,0.966,0.743,0.846,0.743,0.684C0.743,0.532,0.858,0.407,1.001,0.407z M1.479,1.52H0.524
	c-0.03,0-0.043-0.02-0.043-0.047c0-0.113,0.167-0.414,0.521-0.414c0.355,0,0.521,0.301,0.521,0.414C1.522,1.5,1.51,1.52,1.479,1.52z
	"/>
<path id="head" d="M1.001,0.967c0.145,0.001,0.259-0.122,0.259-0.283c0-0.152-0.115-0.277-0.259-0.277
	c-0.143,0-0.258,0.125-0.258,0.277C0.743,0.846,0.858,0.966,1.001,0.967z"/>
<path id="shoulders" d="M0.524,1.52h0.955c0.03,0,0.043-0.02,0.043-0.047c0-0.113-0.166-0.414-0.521-0.414
	c-0.354,0-0.521,0.301-0.521,0.414C0.481,1.5,0.495,1.52,0.524,1.52z"/>
</svg>
