<?xml version="1.0" encoding="utf-8"?>
<!-- Generator: Adobe Illustrator 16.0.0, SVG Export Plug-In . SVG Version: 6.00 Build 0)  -->
<!DOCTYPE svg PUBLIC "-//W3C//DTD SVG 1.1//EN" "http://www.w3.org/Graphics/SVG/1.1/DTD/svg11.dtd">
<svg version="1.1" xmlns="http://www.w3.org/2000/svg" x="0px" y="0px" width="2rem" height="2rem" viewBox="0 0 130 130" >
<g id="Light-L" transform="matrix(1 0 0 1 1079.18 1556)">
	<path d="M-1014.075-1427.51c34.376,0,62.695-28.32,62.695-62.646c0-34.375-28.369-62.695-62.695-62.695
		c-34.375,0-62.646,28.32-62.646,62.695C-1076.721-1455.83-1048.401-1427.51-1014.075-1427.51z M-1014.075-1434.395
		c-30.811,0-55.713-24.951-55.713-55.762c0-30.859,24.854-55.762,55.713-55.762c30.811,0,55.763,24.902,55.811,55.762
		C-958.264-1459.346-983.215-1434.395-1014.075-1434.395z M-1014.075-1493.135c9.375,0.098,16.846-7.91,16.846-18.408
		c0-9.863-7.471-18.018-16.846-18.018c-9.326,0-16.797,8.154-16.797,18.018C-1030.871-1501.045-1023.401-1493.232-1014.075-1493.135
		z M-1045.08-1457.197h62.061c1.954,0,2.784-1.27,2.784-3.125c0-7.324-10.792-26.855-33.839-26.855
		c-22.998,0-33.838,19.531-33.838,26.855C-1047.912-1458.467-1047.034-1457.197-1045.08-1457.197z"/>
</g>
</svg>
