<?xml version="1.0" encoding="utf-8"?>
<!-- Generator: Adobe Illustrator 16.0.0, SVG Export Plug-In . SVG Version: 6.00 Build 0)  -->
<!DOCTYPE svg PUBLIC "-//W3C//DTD SVG 1.1//EN" "http://www.w3.org/Graphics/SVG/1.1/DTD/svg11.dtd">
<svg version="1.1" id="Layer_1" xmlns="http://www.w3.org/2000/svg" width="100px" height="100px" viewBox="-49 -49 100 100" enableBackground="new -49 -49 100 100" >
<path id="circle" fill="#b32cce" d="M0.951-47.451c-26.606,0-48.451,21.894-48.451,48.5c0,26.507,21.894,48.402,48.451,48.402 S49.5,27.557,49.5,1.049C49.5-25.557,27.508-47.451,0.951-47.451z M0.951,44.149c-23.808,0-43.1-19.291-43.1-43.1 c0-23.907,19.243-43.15,43.1-43.15c23.809,0,43.15,19.243,43.15,43.15C44.101,24.858,24.809,44.149,0.951,44.149z"/>
<path id="bg" fill="#f1385d" d="M0.951-42.101c-23.857,0-43.1,19.243-43.1,43.15c0,23.809,19.292,43.1,43.1,43.1 c23.858,0,43.15-19.291,43.15-43.1C44.101-22.857,24.76-42.101,0.951-42.101z M0.951-29.435c7.266,0,13.009,6.284,13.009,13.941 c0,8.1-5.743,14.285-13.009,14.235c-7.216-0.098-13.008-6.136-13.008-14.235C-12.058-23.151-6.265-29.435,0.951-29.435z  M24.956,26.478h-48.01c-1.472,0-2.159-0.982-2.159-2.356c0-5.694,8.395-20.814,26.164-20.814c17.82,0,26.165,15.12,26.165,20.814 C27.115,25.495,26.526,26.478,24.956,26.478z"/>
<path id="head" fill="#b32cce"d="M0.951-1.258C8.217-1.209,13.96-7.394,13.96-15.494c0-7.658-5.743-13.941-13.009-13.941 c-7.216,0-13.008,6.284-13.008,13.941C-12.058-7.394-6.265-1.356,0.951-1.258z"/>
<path id="shoulders" fill="#b32cce"d="M-23.054,26.478h48.01c1.57,0,2.159-0.982,2.159-2.356c0-5.694-8.345-20.814-26.165-20.814 c-17.77,0-26.164,15.12-26.164,20.814C-25.213,25.495-24.526,26.478-23.054,26.478z"/>
</svg>
